<svg width="523" height="166" viewBox="0 0 523 166" fill="none" xmlns="http://www.w3.org/2000/svg">
<path d="M27.499 3.16333V152.456" stroke="#F0F0F0"/>
<path d="M149.947 3.16333V152.456" stroke="#F0F0F0"/>
<path d="M273.434 3.16333V152.456" stroke="#F0F0F0"/>
<path d="M395.882 3.16333V152.456" stroke="#F0F0F0"/>
<path d="M519.368 3.16333V152.456" stroke="#F0F0F0"/>
<path d="M28.0179 152.722H518.849" stroke="#F0F0F0"/>
<path d="M28.0179 115.532H518.849" stroke="#F0F0F0"/>
<path d="M28.0179 78.3411H518.849" stroke="#F0F0F0"/>
<path d="M28.0179 40.6194H518.849" stroke="#F0F0F0"/>
<path d="M28.0179 2.89767H518.849" stroke="#F0F0F0"/>
<path d="M28.0179 152.722H518.849" stroke="#F0F0F0"/>
<path d="M27.499 3.16333V152.456" stroke="#F0F0F0"/>
<path d="M21.9632 158.597V165.707H21.0355V158.597H21.9632ZM24.2484 158.597V159.369H18.7552V158.597H24.2484ZM26.8705 165.804C26.5026 165.804 26.169 165.743 25.8695 165.619C25.5733 165.492 25.3177 165.314 25.1029 165.087C24.8913 164.859 24.7285 164.589 24.6146 164.276C24.5007 163.964 24.4437 163.622 24.4437 163.251V163.046C24.4437 162.616 24.5072 162.233 24.6341 161.898C24.7611 161.56 24.9336 161.273 25.1517 161.039C25.3698 160.804 25.6172 160.627 25.8939 160.507C26.1706 160.386 26.457 160.326 26.7533 160.326C27.1309 160.326 27.4564 160.391 27.7298 160.521C28.0065 160.651 28.2328 160.834 28.4085 161.068C28.5843 161.299 28.7145 161.573 28.7992 161.888C28.8838 162.201 28.9261 162.543 28.9261 162.914V163.319H24.9808V162.582H28.0228V162.513C28.0098 162.279 27.9609 162.051 27.8763 161.83C27.7949 161.608 27.6647 161.426 27.4857 161.283C27.3067 161.14 27.0625 161.068 26.7533 161.068C26.5482 161.068 26.3594 161.112 26.1869 161.2C26.0143 161.285 25.8662 161.411 25.7425 161.581C25.6188 161.75 25.5228 161.957 25.4544 162.201C25.3861 162.445 25.3519 162.727 25.3519 163.046V163.251C25.3519 163.501 25.3861 163.737 25.4544 163.959C25.5261 164.177 25.6286 164.369 25.7621 164.535C25.8988 164.701 26.0632 164.831 26.2552 164.925C26.4505 165.02 26.6719 165.067 26.9193 165.067C27.2383 165.067 27.5085 165.002 27.7298 164.872C27.9512 164.742 28.1449 164.567 28.3109 164.349L28.8578 164.784C28.7438 164.956 28.599 165.121 28.4232 165.277C28.2474 165.433 28.0309 165.56 27.7738 165.658C27.5199 165.756 27.2188 165.804 26.8705 165.804ZM30.5912 160.424L31.7484 162.347L32.9203 160.424H33.9798L32.2513 163.031L34.0335 165.707H32.9886L31.7679 163.724L30.5472 165.707H29.4974L31.2748 163.031L29.5511 160.424H30.5912ZM37.1537 160.424V161.117H34.2972V160.424H37.1537ZM35.264 159.139H36.1673V164.398C36.1673 164.577 36.195 164.712 36.2503 164.803C36.3057 164.895 36.3773 164.955 36.4652 164.984C36.5531 165.013 36.6475 165.028 36.7484 165.028C36.8233 165.028 36.9014 165.022 36.9828 165.008C37.0674 164.992 37.1309 164.979 37.1732 164.969L37.1781 165.707C37.1065 165.73 37.0121 165.751 36.8949 165.77C36.7809 165.793 36.6426 165.804 36.4798 165.804C36.2585 165.804 36.055 165.76 35.8695 165.673C35.6839 165.585 35.5358 165.438 35.4251 165.233C35.3177 165.025 35.264 164.745 35.264 164.393V159.139Z" fill="#A3A3A3"/>
<path d="M144.671 158.597V165.707H143.743V158.597H144.671ZM146.956 158.597V159.369H141.463V158.597H146.956ZM149.578 165.804C149.21 165.804 148.877 165.743 148.577 165.619C148.281 165.492 148.025 165.314 147.811 165.087C147.599 164.859 147.436 164.589 147.322 164.276C147.208 163.964 147.151 163.622 147.151 163.251V163.046C147.151 162.616 147.215 162.233 147.342 161.898C147.469 161.56 147.641 161.273 147.859 161.039C148.078 160.804 148.325 160.627 148.602 160.507C148.878 160.386 149.165 160.326 149.461 160.326C149.839 160.326 150.164 160.391 150.438 160.521C150.714 160.651 150.941 160.834 151.116 161.068C151.292 161.299 151.422 161.573 151.507 161.888C151.592 162.201 151.634 162.543 151.634 162.914V163.319H147.689V162.582H150.731V162.513C150.718 162.279 150.669 162.051 150.584 161.83C150.503 161.608 150.372 161.426 150.193 161.283C150.014 161.14 149.77 161.068 149.461 161.068C149.256 161.068 149.067 161.112 148.895 161.2C148.722 161.285 148.574 161.411 148.45 161.581C148.327 161.75 148.231 161.957 148.162 162.201C148.094 162.445 148.06 162.727 148.06 163.046V163.251C148.06 163.501 148.094 163.737 148.162 163.959C148.234 164.177 148.336 164.369 148.47 164.535C148.607 164.701 148.771 164.831 148.963 164.925C149.158 165.02 149.38 165.067 149.627 165.067C149.946 165.067 150.216 165.002 150.438 164.872C150.659 164.742 150.853 164.567 151.019 164.349L151.566 164.784C151.452 164.956 151.307 165.121 151.131 165.277C150.955 165.433 150.739 165.56 150.482 165.658C150.228 165.756 149.927 165.804 149.578 165.804ZM153.299 160.424L154.456 162.347L155.628 160.424H156.688L154.959 163.031L156.741 165.707H155.696L154.476 163.724L153.255 165.707H152.205L153.983 163.031L152.259 160.424H153.299ZM159.861 160.424V161.117H157.005V160.424H159.861ZM157.972 159.139H158.875V164.398C158.875 164.577 158.903 164.712 158.958 164.803C159.013 164.895 159.085 164.955 159.173 164.984C159.261 165.013 159.355 165.028 159.456 165.028C159.531 165.028 159.609 165.022 159.691 165.008C159.775 164.992 159.839 164.979 159.881 164.969L159.886 165.707C159.814 165.73 159.72 165.751 159.603 165.77C159.489 165.793 159.35 165.804 159.188 165.804C158.966 165.804 158.763 165.76 158.577 165.673C158.392 165.585 158.244 165.438 158.133 165.233C158.025 165.025 157.972 164.745 157.972 164.393V159.139Z" fill="#A3A3A3"/>
<path d="M267.379 158.597V165.707H266.451V158.597H267.379ZM269.664 158.597V159.369H264.171V158.597H269.664ZM272.286 165.804C271.918 165.804 271.585 165.743 271.285 165.619C270.989 165.492 270.733 165.314 270.518 165.087C270.307 164.859 270.144 164.589 270.03 164.276C269.916 163.964 269.859 163.622 269.859 163.251V163.046C269.859 162.616 269.923 162.233 270.05 161.898C270.177 161.56 270.349 161.273 270.567 161.039C270.785 160.804 271.033 160.627 271.31 160.507C271.586 160.386 271.873 160.326 272.169 160.326C272.546 160.326 272.872 160.391 273.145 160.521C273.422 160.651 273.648 160.834 273.824 161.068C274 161.299 274.13 161.573 274.215 161.888C274.299 162.201 274.342 162.543 274.342 162.914V163.319H270.396V162.582H273.438V162.513C273.425 162.279 273.377 162.051 273.292 161.83C273.211 161.608 273.08 161.426 272.901 161.283C272.722 161.14 272.478 161.068 272.169 161.068C271.964 161.068 271.775 161.112 271.602 161.2C271.43 161.285 271.282 161.411 271.158 161.581C271.034 161.75 270.938 161.957 270.87 162.201C270.802 162.445 270.768 162.727 270.768 163.046V163.251C270.768 163.501 270.802 163.737 270.87 163.959C270.942 164.177 271.044 164.369 271.178 164.535C271.314 164.701 271.479 164.831 271.671 164.925C271.866 165.02 272.088 165.067 272.335 165.067C272.654 165.067 272.924 165.002 273.145 164.872C273.367 164.742 273.56 164.567 273.727 164.349L274.273 164.784C274.159 164.956 274.015 165.121 273.839 165.277C273.663 165.433 273.447 165.56 273.189 165.658C272.935 165.756 272.634 165.804 272.286 165.804ZM276.007 160.424L277.164 162.347L278.336 160.424H279.395L277.667 163.031L279.449 165.707H278.404L277.184 163.724L275.963 165.707H274.913L276.69 163.031L274.967 160.424H276.007ZM282.569 160.424V161.117H279.713V160.424H282.569ZM280.68 159.139H281.583V164.398C281.583 164.577 281.611 164.712 281.666 164.803C281.721 164.895 281.793 164.955 281.881 164.984C281.969 165.013 282.063 165.028 282.164 165.028C282.239 165.028 282.317 165.022 282.398 165.008C282.483 164.992 282.546 164.979 282.589 164.969L282.594 165.707C282.522 165.73 282.428 165.751 282.31 165.77C282.197 165.793 282.058 165.804 281.895 165.804C281.674 165.804 281.471 165.76 281.285 165.673C281.1 165.585 280.951 165.438 280.841 165.233C280.733 165.025 280.68 164.745 280.68 164.393V159.139Z" fill="#A3A3A3"/>
<path d="M390.087 158.597V165.707H389.159V158.597H390.087ZM392.372 158.597V159.369H386.879V158.597H392.372ZM394.994 165.804C394.626 165.804 394.292 165.743 393.993 165.619C393.697 165.492 393.441 165.314 393.226 165.087C393.015 164.859 392.852 164.589 392.738 164.276C392.624 163.964 392.567 163.622 392.567 163.251V163.046C392.567 162.616 392.631 162.233 392.758 161.898C392.885 161.56 393.057 161.273 393.275 161.039C393.493 160.804 393.741 160.627 394.017 160.507C394.294 160.386 394.581 160.326 394.877 160.326C395.254 160.326 395.58 160.391 395.853 160.521C396.13 160.651 396.356 160.834 396.532 161.068C396.708 161.299 396.838 161.573 396.923 161.888C397.007 162.201 397.05 162.543 397.05 162.914V163.319H393.104V162.582H396.146V162.513C396.133 162.279 396.084 162.051 396 161.83C395.918 161.608 395.788 161.426 395.609 161.283C395.43 161.14 395.186 161.068 394.877 161.068C394.672 161.068 394.483 161.112 394.31 161.2C394.138 161.285 393.99 161.411 393.866 161.581C393.742 161.75 393.646 161.957 393.578 162.201C393.51 162.445 393.475 162.727 393.475 163.046V163.251C393.475 163.501 393.51 163.737 393.578 163.959C393.65 164.177 393.752 164.369 393.886 164.535C394.022 164.701 394.187 164.831 394.379 164.925C394.574 165.02 394.795 165.067 395.043 165.067C395.362 165.067 395.632 165.002 395.853 164.872C396.075 164.742 396.268 164.567 396.434 164.349L396.981 164.784C396.867 164.956 396.723 165.121 396.547 165.277C396.371 165.433 396.154 165.56 395.897 165.658C395.643 165.756 395.342 165.804 394.994 165.804ZM398.715 160.424L399.872 162.347L401.044 160.424H402.103L400.375 163.031L402.157 165.707H401.112L399.891 163.724L398.671 165.707H397.621L399.398 163.031L397.675 160.424H398.715ZM405.277 160.424V161.117H402.421V160.424H405.277ZM403.388 159.139H404.291V164.398C404.291 164.577 404.319 164.712 404.374 164.803C404.429 164.895 404.501 164.955 404.589 164.984C404.677 165.013 404.771 165.028 404.872 165.028C404.947 165.028 405.025 165.022 405.106 165.008C405.191 164.992 405.254 164.979 405.297 164.969L405.302 165.707C405.23 165.73 405.136 165.751 405.018 165.77C404.904 165.793 404.766 165.804 404.603 165.804C404.382 165.804 404.179 165.76 403.993 165.673C403.807 165.585 403.659 165.438 403.549 165.233C403.441 165.025 403.388 164.745 403.388 164.393V159.139Z" fill="#A3A3A3"/>
<path d="M503.334 158.597V165.707H502.406V158.597H503.334ZM505.619 158.597V159.369H500.126V158.597H505.619ZM508.241 165.804C507.874 165.804 507.54 165.743 507.24 165.619C506.944 165.492 506.689 165.314 506.474 165.087C506.262 164.859 506.099 164.589 505.986 164.276C505.872 163.964 505.815 163.622 505.815 163.251V163.046C505.815 162.616 505.878 162.233 506.005 161.898C506.132 161.56 506.305 161.273 506.523 161.039C506.741 160.804 506.988 160.627 507.265 160.507C507.541 160.386 507.828 160.326 508.124 160.326C508.502 160.326 508.827 160.391 509.101 160.521C509.377 160.651 509.604 160.834 509.779 161.068C509.955 161.299 510.085 161.573 510.17 161.888C510.255 162.201 510.297 162.543 510.297 162.914V163.319H506.352V162.582H509.394V162.513C509.381 162.279 509.332 162.051 509.247 161.83C509.166 161.608 509.036 161.426 508.857 161.283C508.678 161.14 508.433 161.068 508.124 161.068C507.919 161.068 507.73 161.112 507.558 161.2C507.385 161.285 507.237 161.411 507.113 161.581C506.99 161.75 506.894 161.957 506.825 162.201C506.757 162.445 506.723 162.727 506.723 163.046V163.251C506.723 163.501 506.757 163.737 506.825 163.959C506.897 164.177 507 164.369 507.133 164.535C507.27 164.701 507.434 164.831 507.626 164.925C507.821 165.02 508.043 165.067 508.29 165.067C508.609 165.067 508.879 165.002 509.101 164.872C509.322 164.742 509.516 164.567 509.682 164.349L510.229 164.784C510.115 164.956 509.97 165.121 509.794 165.277C509.618 165.433 509.402 165.56 509.145 165.658C508.891 165.756 508.59 165.804 508.241 165.804ZM511.962 160.424L513.119 162.347L514.291 160.424H515.351L513.622 163.031L515.404 165.707H514.36L513.139 163.724L511.918 165.707H510.868L512.646 163.031L510.922 160.424H511.962ZM518.525 160.424V161.117H515.668V160.424H518.525ZM516.635 159.139H517.538V164.398C517.538 164.577 517.566 164.712 517.621 164.803C517.677 164.895 517.748 164.955 517.836 164.984C517.924 165.013 518.018 165.028 518.119 165.028C518.194 165.028 518.272 165.022 518.354 165.008C518.438 164.992 518.502 164.979 518.544 164.969L518.549 165.707C518.477 165.73 518.383 165.751 518.266 165.77C518.152 165.793 518.013 165.804 517.851 165.804C517.629 165.804 517.426 165.76 517.24 165.673C517.055 165.585 516.907 165.438 516.796 165.233C516.689 165.025 516.635 164.745 516.635 164.393V159.139Z" fill="#A3A3A3"/>
<path d="M17.0696 154.679V155.763C17.0696 156.345 17.0175 156.837 16.9133 157.237C16.8092 157.638 16.6594 157.96 16.4641 158.204C16.2688 158.448 16.0328 158.626 15.7561 158.736C15.4827 158.844 15.1734 158.898 14.8284 158.898C14.5549 158.898 14.3026 158.863 14.0715 158.795C13.8404 158.727 13.6321 158.618 13.4465 158.468C13.2642 158.315 13.108 158.116 12.9778 157.872C12.8476 157.628 12.7483 157.332 12.6799 156.984C12.6116 156.635 12.5774 156.228 12.5774 155.763V154.679C12.5774 154.096 12.6295 153.608 12.7336 153.214C12.8411 152.82 12.9924 152.504 13.1877 152.267C13.3831 152.026 13.6174 151.853 13.8909 151.749C14.1676 151.645 14.4768 151.593 14.8186 151.593C15.0953 151.593 15.3492 151.627 15.5803 151.695C15.8147 151.761 16.023 151.866 16.2053 152.013C16.3876 152.156 16.5422 152.348 16.6692 152.589C16.7994 152.827 16.8987 153.118 16.967 153.463C17.0354 153.808 17.0696 154.213 17.0696 154.679ZM16.1614 155.909V154.527C16.1614 154.208 16.1418 153.929 16.1028 153.688C16.067 153.443 16.0133 153.235 15.9416 153.063C15.87 152.89 15.7789 152.75 15.6682 152.643C15.5608 152.535 15.4355 152.457 15.2922 152.408C15.1523 152.356 14.9944 152.33 14.8186 152.33C14.6038 152.33 14.4133 152.371 14.2473 152.452C14.0813 152.53 13.9413 152.656 13.8274 152.828C13.7167 153.001 13.6321 153.227 13.5735 153.507C13.5149 153.787 13.4856 154.127 13.4856 154.527V155.909C13.4856 156.228 13.5035 156.51 13.5393 156.754C13.5784 156.998 13.6353 157.21 13.7102 157.389C13.7851 157.565 13.8762 157.709 13.9836 157.823C14.0911 157.937 14.2148 158.022 14.3547 158.077C14.498 158.129 14.6558 158.155 14.8284 158.155C15.0497 158.155 15.2434 158.113 15.4094 158.028C15.5754 157.944 15.7138 157.812 15.8245 157.633C15.9384 157.451 16.023 157.218 16.0784 156.935C16.1337 156.648 16.1614 156.306 16.1614 155.909Z" fill="#A3A3A3"/>
<path d="M11.6399 120.336V121.078H6.98656V120.429L9.31566 117.836C9.60212 117.517 9.82348 117.247 9.97973 117.025C10.1392 116.801 10.2499 116.601 10.3118 116.425C10.3769 116.246 10.4094 116.063 10.4094 115.878C10.4094 115.644 10.3606 115.432 10.2629 115.243C10.1685 115.051 10.0286 114.898 9.84301 114.784C9.65746 114.67 9.43285 114.613 9.16918 114.613C8.85342 114.613 8.58975 114.675 8.37816 114.799C8.16983 114.919 8.01358 115.089 7.90941 115.307C7.80525 115.525 7.75316 115.775 7.75316 116.059H6.84984C6.84984 115.658 6.93773 115.292 7.11351 114.96C7.2893 114.628 7.54971 114.364 7.89476 114.169C8.23982 113.97 8.66462 113.871 9.16918 113.871C9.6184 113.871 10.0025 113.951 10.3215 114.11C10.6405 114.267 10.8847 114.488 11.0539 114.774C11.2265 115.058 11.3127 115.39 11.3127 115.771C11.3127 115.979 11.2769 116.19 11.2053 116.405C11.137 116.617 11.0409 116.828 10.9172 117.04C10.7968 117.252 10.6552 117.46 10.4924 117.665C10.3329 117.87 10.162 118.072 9.97973 118.271L8.07543 120.336H11.6399ZM13.7493 117.694L13.0266 117.509L13.383 113.969H17.0305V114.804H14.1496L13.9348 116.737C14.065 116.662 14.2294 116.592 14.428 116.527C14.6298 116.462 14.8609 116.43 15.1213 116.43C15.4501 116.43 15.7447 116.487 16.0051 116.601C16.2655 116.711 16.4869 116.871 16.6692 117.079C16.8547 117.287 16.9963 117.538 17.094 117.831C17.1916 118.124 17.2405 118.451 17.2405 118.812C17.2405 119.154 17.1933 119.468 17.0989 119.755C17.0077 120.041 16.8694 120.292 16.6838 120.507C16.4983 120.718 16.2639 120.883 15.9807 121C15.7008 121.117 15.3704 121.176 14.9895 121.176C14.703 121.176 14.4312 121.137 14.1741 121.059C13.9202 120.977 13.6923 120.855 13.4905 120.692C13.2919 120.526 13.1291 120.321 13.0022 120.077C12.8785 119.83 12.8004 119.54 12.7678 119.208H13.6272C13.6662 119.475 13.7444 119.7 13.8616 119.882C13.9787 120.064 14.1317 120.202 14.3205 120.297C14.5126 120.388 14.7356 120.434 14.9895 120.434C15.2043 120.434 15.3948 120.396 15.5608 120.321C15.7268 120.246 15.8668 120.139 15.9807 119.999C16.0946 119.859 16.1809 119.69 16.2395 119.491C16.3013 119.293 16.3323 119.07 16.3323 118.822C16.3323 118.598 16.3013 118.389 16.2395 118.197C16.1776 118.005 16.0849 117.838 15.9612 117.694C15.8407 117.551 15.6926 117.44 15.5168 117.362C15.3411 117.281 15.1392 117.24 14.9114 117.24C14.6086 117.24 14.3791 117.281 14.2229 117.362C14.0699 117.444 13.912 117.554 13.7493 117.694Z" fill="#A3A3A3"/>
<path d="M8.12426 80.5039L7.4016 80.3184L7.75805 76.7783H11.4055V77.6133H8.52465L8.3098 79.5469C8.44001 79.472 8.6044 79.402 8.80297 79.3369C9.00479 79.2718 9.23591 79.2393 9.49633 79.2393C9.8251 79.2393 10.1197 79.2962 10.3801 79.4102C10.6405 79.5208 10.8619 79.6803 11.0442 79.8887C11.2297 80.097 11.3713 80.3477 11.469 80.6406C11.5666 80.9336 11.6155 81.2607 11.6155 81.6221C11.6155 81.9639 11.5683 82.278 11.4739 82.5645C11.3827 82.8509 11.2444 83.1016 11.0588 83.3164C10.8733 83.528 10.6389 83.6924 10.3557 83.8096C10.0758 83.9268 9.74535 83.9854 9.36449 83.9854C9.07803 83.9854 8.80622 83.9463 8.54906 83.8682C8.29516 83.7868 8.06729 83.6647 7.86547 83.502C7.6669 83.3359 7.50414 83.1309 7.37719 82.8867C7.25349 82.6393 7.17536 82.3496 7.14281 82.0176H8.00219C8.04125 82.2845 8.11937 82.5091 8.23656 82.6914C8.35375 82.8737 8.50674 83.012 8.69555 83.1064C8.8876 83.1976 9.11059 83.2432 9.36449 83.2432C9.57934 83.2432 9.76976 83.2057 9.93578 83.1309C10.1018 83.056 10.2418 82.9486 10.3557 82.8086C10.4696 82.6686 10.5559 82.4993 10.6145 82.3008C10.6763 82.1022 10.7073 81.8792 10.7073 81.6318C10.7073 81.4072 10.6763 81.1989 10.6145 81.0068C10.5526 80.8148 10.4599 80.6471 10.3362 80.5039C10.2157 80.3607 10.0676 80.25 9.89184 80.1719C9.71605 80.0905 9.51423 80.0498 9.28637 80.0498C8.98363 80.0498 8.75414 80.0905 8.59789 80.1719C8.4449 80.2533 8.28702 80.3639 8.12426 80.5039ZM17.0696 79.7666V80.8506C17.0696 81.4333 17.0175 81.9248 16.9133 82.3252C16.8092 82.7256 16.6594 83.0479 16.4641 83.292C16.2688 83.5361 16.0328 83.7135 15.7561 83.8242C15.4827 83.9316 15.1734 83.9854 14.8284 83.9854C14.5549 83.9854 14.3026 83.9512 14.0715 83.8828C13.8404 83.8145 13.6321 83.7054 13.4465 83.5557C13.2642 83.4027 13.108 83.2041 12.9778 82.96C12.8476 82.7158 12.7483 82.4196 12.6799 82.0713C12.6116 81.723 12.5774 81.3161 12.5774 80.8506V79.7666C12.5774 79.1839 12.6295 78.6956 12.7336 78.3018C12.8411 77.9079 12.9924 77.5921 13.1877 77.3545C13.383 77.1136 13.6174 76.9411 13.8909 76.8369C14.1676 76.7327 14.4768 76.6807 14.8186 76.6807C15.0953 76.6807 15.3492 76.7148 15.5803 76.7832C15.8147 76.8483 16.023 76.9541 16.2053 77.1006C16.3876 77.2438 16.5422 77.4359 16.6692 77.6768C16.7994 77.9144 16.8987 78.2057 16.967 78.5508C17.0354 78.8958 17.0696 79.3011 17.0696 79.7666ZM16.1614 80.9971V79.6152C16.1614 79.2962 16.1418 79.0163 16.1028 78.7754C16.067 78.5312 16.0133 78.3229 15.9416 78.1504C15.87 77.9779 15.7789 77.8379 15.6682 77.7305C15.5608 77.623 15.4355 77.5449 15.2922 77.4961C15.1523 77.444 14.9944 77.418 14.8186 77.418C14.6037 77.418 14.4133 77.4587 14.2473 77.54C14.0813 77.6182 13.9413 77.7435 13.8274 77.916C13.7167 78.0885 13.6321 78.3148 13.5735 78.5947C13.5149 78.8747 13.4856 79.2148 13.4856 79.6152V80.9971C13.4856 81.3161 13.5035 81.5977 13.5393 81.8418C13.5784 82.0859 13.6353 82.2975 13.7102 82.4766C13.7851 82.6523 13.8762 82.7972 13.9836 82.9111C14.0911 83.0251 14.2148 83.1097 14.3547 83.165C14.498 83.2171 14.6558 83.2432 14.8284 83.2432C15.0497 83.2432 15.2434 83.2008 15.4094 83.1162C15.5754 83.0316 15.7138 82.8997 15.8245 82.7207C15.9384 82.5384 16.023 82.3057 16.0784 82.0225C16.1337 81.736 16.1614 81.3942 16.1614 80.9971Z" fill="#A3A3A3"/>
<path d="M11.5764 39.5879V40.0957L8.63207 46.6973H7.67992L10.6194 40.3301H6.77172V39.5879H11.5764ZM13.7493 43.3135L13.0266 43.1279L13.383 39.5879H17.0305V40.4229H14.1496L13.9348 42.3564C14.065 42.2816 14.2294 42.2116 14.428 42.1465C14.6298 42.0814 14.8609 42.0488 15.1213 42.0488C15.4501 42.0488 15.7447 42.1058 16.0051 42.2197C16.2655 42.3304 16.4869 42.4899 16.6692 42.6982C16.8547 42.9066 16.9963 43.1572 17.094 43.4502C17.1916 43.7432 17.2405 44.0703 17.2405 44.4316C17.2405 44.7734 17.1933 45.0876 17.0989 45.374C17.0077 45.6605 16.8694 45.9111 16.6838 46.126C16.4983 46.3376 16.2639 46.502 15.9807 46.6191C15.7008 46.7363 15.3704 46.7949 14.9895 46.7949C14.703 46.7949 14.4312 46.7559 14.1741 46.6777C13.9202 46.5964 13.6923 46.4743 13.4905 46.3115C13.2919 46.1455 13.1291 45.9404 13.0022 45.6963C12.8785 45.4489 12.8004 45.1592 12.7678 44.8271H13.6272C13.6662 45.0941 13.7444 45.3187 13.8616 45.501C13.9787 45.6833 14.1317 45.8216 14.3205 45.916C14.5126 46.0072 14.7356 46.0527 14.9895 46.0527C15.2043 46.0527 15.3948 46.0153 15.5608 45.9404C15.7268 45.8656 15.8668 45.7581 15.9807 45.6182C16.0946 45.4782 16.1809 45.3089 16.2395 45.1104C16.3013 44.9118 16.3323 44.6888 16.3323 44.4414C16.3323 44.2168 16.3013 44.0085 16.2395 43.8164C16.1776 43.6243 16.0849 43.4567 15.9612 43.3135C15.8407 43.1702 15.6926 43.0596 15.5168 42.9814C15.3411 42.9001 15.1392 42.8594 14.9114 42.8594C14.6086 42.8594 14.3791 42.9001 14.2229 42.9814C14.0699 43.0628 13.912 43.1735 13.7493 43.3135Z" fill="#A3A3A3"/>
<path d="M4.32544 2.3584V9.50684H3.42212V3.48633L1.60083 4.15039V3.33496L4.18384 2.3584H4.32544ZM11.4446 5.38574V6.46973C11.4446 7.05241 11.3925 7.54395 11.2883 7.94434C11.1842 8.34473 11.0344 8.66699 10.8391 8.91113C10.6438 9.15527 10.4078 9.33268 10.1311 9.44336C9.85767 9.55078 9.54843 9.60449 9.20337 9.60449C8.92994 9.60449 8.67766 9.57031 8.44654 9.50195C8.21542 9.43359 8.00708 9.32454 7.82154 9.1748C7.63925 9.02181 7.483 8.82324 7.35279 8.5791C7.22258 8.33496 7.12329 8.03874 7.05494 7.69043C6.98658 7.34212 6.9524 6.93522 6.9524 6.46973V5.38574C6.9524 4.80306 7.00448 4.31478 7.10865 3.9209C7.21607 3.52702 7.36744 3.21126 7.56275 2.97363C7.75806 2.73275 7.99244 2.56022 8.26587 2.45605C8.54257 2.35189 8.85181 2.2998 9.19361 2.2998C9.4703 2.2998 9.72421 2.33398 9.95533 2.40234C10.1897 2.46745 10.398 2.57324 10.5803 2.71973C10.7626 2.86296 10.9172 3.05501 11.0442 3.2959C11.1744 3.53353 11.2737 3.82487 11.342 4.16992C11.4104 4.51497 11.4446 4.92025 11.4446 5.38574ZM10.5364 6.61621V5.23438C10.5364 4.91536 10.5168 4.63542 10.4778 4.39453C10.442 4.15039 10.3883 3.94206 10.3167 3.76953C10.245 3.59701 10.1539 3.45703 10.0432 3.34961C9.93579 3.24219 9.81047 3.16406 9.66724 3.11523C9.52727 3.06315 9.36939 3.03711 9.19361 3.03711C8.97876 3.03711 8.78833 3.0778 8.62232 3.15918C8.4563 3.2373 8.31633 3.36263 8.2024 3.53516C8.09172 3.70768 8.00708 3.93392 7.94849 4.21387C7.8899 4.49382 7.8606 4.83398 7.8606 5.23438V6.61621C7.8606 6.93522 7.8785 7.2168 7.91431 7.46094C7.95337 7.70508 8.01034 7.91667 8.08521 8.0957C8.16008 8.27148 8.25122 8.41634 8.35865 8.53027C8.46607 8.64421 8.58977 8.72884 8.72974 8.78418C8.87297 8.83626 9.03085 8.8623 9.20337 8.8623C9.42473 8.8623 9.61841 8.81999 9.78443 8.73535C9.95044 8.65072 10.0888 8.51888 10.1995 8.33984C10.3134 8.15755 10.398 7.9248 10.4534 7.6416C10.5087 7.35514 10.5364 7.01335 10.5364 6.61621ZM17.0696 5.38574V6.46973C17.0696 7.05241 17.0175 7.54395 16.9133 7.94434C16.8092 8.34473 16.6594 8.66699 16.4641 8.91113C16.2688 9.15527 16.0328 9.33268 15.7561 9.44336C15.4827 9.55078 15.1734 9.60449 14.8284 9.60449C14.5549 9.60449 14.3027 9.57031 14.0715 9.50195C13.8404 9.43359 13.6321 9.32454 13.4465 9.1748C13.2642 9.02181 13.108 8.82324 12.9778 8.5791C12.8476 8.33496 12.7483 8.03874 12.6799 7.69043C12.6116 7.34212 12.5774 6.93522 12.5774 6.46973V5.38574C12.5774 4.80306 12.6295 4.31478 12.7336 3.9209C12.8411 3.52702 12.9924 3.21126 13.1877 2.97363C13.3831 2.73275 13.6174 2.56022 13.8909 2.45605C14.1676 2.35189 14.4768 2.2998 14.8186 2.2998C15.0953 2.2998 15.3492 2.33398 15.5803 2.40234C15.8147 2.46745 16.023 2.57324 16.2053 2.71973C16.3876 2.86296 16.5422 3.05501 16.6692 3.2959C16.7994 3.53353 16.8987 3.82487 16.967 4.16992C17.0354 4.51497 17.0696 4.92025 17.0696 5.38574ZM16.1614 6.61621V5.23438C16.1614 4.91536 16.1418 4.63542 16.1028 4.39453C16.067 4.15039 16.0133 3.94206 15.9417 3.76953C15.87 3.59701 15.7789 3.45703 15.6682 3.34961C15.5608 3.24219 15.4355 3.16406 15.2922 3.11523C15.1523 3.06315 14.9944 3.03711 14.8186 3.03711C14.6038 3.03711 14.4133 3.0778 14.2473 3.15918C14.0813 3.2373 13.9413 3.36263 13.8274 3.53516C13.7167 3.70768 13.6321 3.93392 13.5735 4.21387C13.5149 4.49382 13.4856 4.83398 13.4856 5.23438V6.61621C13.4856 6.93522 13.5035 7.2168 13.5393 7.46094C13.5784 7.70508 13.6353 7.91667 13.7102 8.0957C13.7851 8.27148 13.8762 8.41634 13.9836 8.53027C14.0911 8.64421 14.2148 8.72884 14.3547 8.78418C14.498 8.83626 14.6558 8.8623 14.8284 8.8623C15.0497 8.8623 15.2434 8.81999 15.4094 8.73535C15.5754 8.65072 15.7138 8.51888 15.8245 8.33984C15.9384 8.15755 16.023 7.9248 16.0784 7.6416C16.1337 7.35514 16.1614 7.01335 16.1614 6.61621Z" fill="#A3A3A3"/>
<path d="M28.0179 68.8522C28.0179 68.8522 101.643 143.499 150.726 143.499C199.809 143.499 224.35 25.5573 273.434 25.5573C322.517 25.5573 347.058 124.091 396.141 124.091C445.225 124.091 518.849 18.0926 518.849 18.0926" stroke="#A6CEE3" stroke-width="2"/>
<path d="M28.0179 71.1687C26.9172 71.1687 25.8616 70.9449 25.0832 70.5464C24.3048 70.148 23.8674 69.6076 23.8671 69.0441C23.8669 68.4805 24.3038 67.94 25.0818 67.5414C25.8598 67.1427 26.9152 66.9186 28.0158 66.9184C29.1165 66.9181 30.1724 67.1416 30.9511 67.5399C31.7299 67.9381 32.1679 68.4784 32.1687 69.0419C32.1695 69.6055 31.7332 70.1461 30.9555 70.5449C30.1779 70.9438 29.1227 71.1681 28.0221 71.1687H28.0179Z" fill="#A6CEE3"/>
<path d="M150.466 145.55C149.366 145.55 148.31 145.326 147.532 144.927C146.753 144.529 146.316 143.988 146.316 143.425C146.315 142.861 146.752 142.321 147.53 141.922C148.308 141.524 149.364 141.299 150.464 141.299C151.565 141.299 152.621 141.522 153.4 141.921C154.178 142.319 154.616 142.859 154.617 143.423C154.618 143.986 154.182 144.527 153.404 144.926C152.626 145.325 151.571 145.549 150.47 145.55H150.466Z" fill="#A6CEE3"/>
<path d="M272.915 27.6027C271.814 27.6027 270.758 27.3789 269.98 26.9805C269.202 26.582 268.764 26.0416 268.764 25.4781C268.764 24.9145 269.201 24.374 269.979 23.9754C270.757 23.5768 271.812 23.3527 272.913 23.3524C274.013 23.3521 275.069 23.5757 275.848 23.9739C276.627 24.3721 277.065 24.9124 277.066 25.476C277.066 26.0395 276.63 26.5801 275.852 26.979C275.075 27.3778 274.02 27.6022 272.919 27.6027L272.915 27.6027Z" fill="#A6CEE3"/>
<path d="M395.363 126.423C394.262 126.423 393.207 126.199 392.428 125.801C391.65 125.402 391.213 124.862 391.212 124.298C391.212 123.735 391.649 123.194 392.427 122.796C393.205 122.397 394.26 122.173 395.361 122.173C396.462 122.172 397.518 122.396 398.296 122.794C399.075 123.192 399.513 123.733 399.514 124.296C399.515 124.86 399.078 125.4 398.301 125.799C397.523 126.198 396.468 126.423 395.367 126.423H395.363Z" fill="#A6CEE3"/>
<path d="M518.849 20.1647C517.749 20.1647 516.693 19.9408 515.915 19.5424C515.136 19.144 514.699 18.6036 514.698 18.04C514.698 17.4765 515.135 16.936 515.913 16.5373C516.691 16.1387 517.746 15.9146 518.847 15.9143C519.948 15.9141 521.004 16.1376 521.782 16.5358C522.561 16.9341 522.999 17.4744 523 18.0379C523.001 18.6014 522.564 19.1421 521.787 19.5409C521.009 19.9397 519.954 20.1641 518.853 20.1647L518.849 20.1647Z" fill="#A6CEE3"/>
<path d="M28.0179 25.5573C28.0179 25.5573 101.643 97.2179 150.726 97.2179C199.809 97.2179 224.35 30.036 273.434 30.036C322.517 30.036 347.058 71.8381 396.141 71.8381C445.225 71.8381 518.849 58.4017 518.849 58.4017" stroke="#1F78B4" stroke-width="2"/>
<path d="M28.0179 27.6027C26.9172 27.6027 25.8616 27.3789 25.0832 26.9805C24.3048 26.582 23.8674 26.0416 23.8671 25.4781C23.8669 24.9145 24.3038 24.374 25.0818 23.9754C25.8598 23.5768 26.9152 23.3527 28.0158 23.3524C29.1165 23.3521 30.1724 23.5757 30.9511 23.9739C31.7299 24.3721 32.1679 24.9124 32.1687 25.476C32.1695 26.0395 31.7332 26.5801 30.9555 26.979C30.1779 27.3778 29.1227 27.6022 28.0221 27.6027L28.0179 27.6027Z" fill="#1F78B4"/>
<path d="M150.466 99.3271C149.366 99.3271 148.31 99.1033 147.532 98.7049C146.753 98.3064 146.316 97.766 146.316 97.2025C146.315 96.6389 146.752 96.0984 147.53 95.6998C148.308 95.3012 149.364 95.0771 150.464 95.0768C151.565 95.0765 152.621 95.3001 153.4 95.6983C154.178 96.0965 154.616 96.6368 154.617 97.2004C154.618 97.7639 154.182 98.3045 153.404 98.7034C152.626 99.1022 151.571 99.3266 150.47 99.3271H150.466Z" fill="#1F78B4"/>
<path d="M272.915 32.3844C271.814 32.3844 270.758 32.1605 269.98 31.7621C269.202 31.3637 268.764 30.8233 268.764 30.2597C268.764 29.6962 269.201 29.1557 269.979 28.757C270.757 28.3584 271.812 28.1343 272.913 28.134C274.013 28.1338 275.069 28.3573 275.848 28.7555C276.627 29.1538 277.065 29.6941 277.066 30.2576C277.066 30.8211 276.63 31.3618 275.852 31.7606C275.075 32.1594 274.02 32.3838 272.919 32.3844L272.915 32.3844Z" fill="#1F78B4"/>
<path d="M395.363 73.8251C394.262 73.8251 393.207 73.6013 392.428 73.2028C391.65 72.8044 391.213 72.264 391.212 71.7005C391.212 71.1369 391.649 70.5964 392.427 70.1978C393.205 69.7991 394.26 69.5751 395.361 69.5748C396.462 69.5745 397.518 69.798 398.296 70.1963C399.075 70.5945 399.513 71.1348 399.514 71.6983C399.515 72.2619 399.078 72.8025 398.301 73.2013C397.523 73.6002 396.468 73.8245 395.367 73.8251H395.363Z" fill="#1F78B4"/>
<path d="M518.849 60.5429C517.749 60.5429 516.693 60.319 515.915 59.9206C515.136 59.5222 514.699 58.9818 514.698 58.4182C514.698 57.8547 515.135 57.3142 515.913 56.9156C516.691 56.5169 517.746 56.2928 518.847 56.2925C519.948 56.2923 521.004 56.5158 521.782 56.9141C522.561 57.3123 522.999 57.8526 523 58.4161C523.001 58.9797 522.564 59.5203 521.787 59.9191C521.009 60.3179 519.954 60.5423 518.853 60.5429H518.849Z" fill="#1F78B4"/>
</svg>
