<svg width="318" height="99" viewBox="0 0 318 99" fill="none" xmlns="http://www.w3.org/2000/svg">
<path d="M52.3398 43H49.0195V29.543H34.0195V43H30.6992V14.4453H34.0195V26.6133H49.0195V14.4453H52.3398V43ZM67.9453 21.2031C69.7682 21.2031 71.3307 21.6068 72.6328 22.4141C73.9349 23.2214 74.931 24.3542 75.6211 25.8125C76.3112 27.2578 76.6562 28.9505 76.6562 30.8906V32.9023H61.8711C61.9102 35.4154 62.5352 37.3294 63.7461 38.6445C64.957 39.9596 66.6628 40.6172 68.8633 40.6172C70.2174 40.6172 71.4154 40.4935 72.457 40.2461C73.4987 39.9987 74.5794 39.6341 75.6992 39.1523V42.0039C74.6185 42.4857 73.5443 42.8372 72.4766 43.0586C71.4219 43.2799 70.1719 43.3906 68.7266 43.3906C66.6693 43.3906 64.8724 42.974 63.3359 42.1406C61.8125 41.2943 60.6276 40.0573 59.7812 38.4297C58.9349 36.8021 58.5117 34.8099 58.5117 32.4531C58.5117 30.1484 58.8958 28.1562 59.6641 26.4766C60.4453 24.7839 61.5391 23.4818 62.9453 22.5703C64.3646 21.6589 66.0312 21.2031 67.9453 21.2031ZM67.9062 23.8594C66.1745 23.8594 64.7943 24.4258 63.7656 25.5586C62.737 26.6914 62.125 28.2734 61.9297 30.3047H73.2578C73.2448 29.0286 73.043 27.9089 72.6523 26.9453C72.2747 25.9688 71.6953 25.2135 70.9141 24.6797C70.1328 24.1328 69.1302 23.8594 67.9062 23.8594ZM90.1719 21.2422C92.724 21.2422 94.6185 21.8151 95.8555 22.9609C97.0924 24.1068 97.7109 25.9362 97.7109 28.4492V43H95.3477L94.7227 39.8359H94.5664C93.9674 40.6172 93.3424 41.2747 92.6914 41.8086C92.0404 42.3294 91.2852 42.7266 90.4258 43C89.5794 43.2604 88.5378 43.3906 87.3008 43.3906C85.9987 43.3906 84.8398 43.1628 83.8242 42.707C82.8216 42.2513 82.0273 41.5612 81.4414 40.6367C80.8685 39.7122 80.582 38.5404 80.582 37.1211C80.582 34.9857 81.4284 33.3451 83.1211 32.1992C84.8138 31.0534 87.3919 30.4284 90.8555 30.3242L94.5469 30.168V28.8594C94.5469 27.0104 94.1497 25.7148 93.3555 24.9727C92.5612 24.2305 91.4414 23.8594 89.9961 23.8594C88.8763 23.8594 87.8086 24.0221 86.793 24.3477C85.7773 24.6732 84.8138 25.0573 83.9023 25.5L82.9062 23.0391C83.8698 22.5443 84.9766 22.1211 86.2266 21.7695C87.4766 21.418 88.7917 21.2422 90.1719 21.2422ZM94.5078 32.4531L91.2461 32.5898C88.5768 32.694 86.6953 33.1302 85.6016 33.8984C84.5078 34.6667 83.9609 35.7539 83.9609 37.1602C83.9609 38.3841 84.332 39.2891 85.0742 39.875C85.8164 40.4609 86.7995 40.7539 88.0234 40.7539C89.9245 40.7539 91.4805 40.2266 92.6914 39.1719C93.9023 38.1172 94.5078 36.5352 94.5078 34.4258V32.4531ZM107.652 43H104.391V12.6094H107.652V43ZM121.422 40.7344C121.956 40.7344 122.503 40.6888 123.062 40.5977C123.622 40.5065 124.078 40.3958 124.43 40.2656V42.7852C124.052 42.9544 123.525 43.0977 122.848 43.2148C122.184 43.332 121.533 43.3906 120.895 43.3906C119.762 43.3906 118.733 43.1953 117.809 42.8047C116.884 42.401 116.142 41.724 115.582 40.7734C115.035 39.8229 114.762 38.5078 114.762 36.8281V24.1328H111.715V22.5508L114.781 21.2812L116.07 16.6328H118.023V21.5938H124.293V24.1328H118.023V36.7305C118.023 38.0716 118.329 39.0742 118.941 39.7383C119.566 40.4023 120.393 40.7344 121.422 40.7344ZM132.008 12.6094V21.6914C132.008 22.2122 131.995 22.7396 131.969 23.2734C131.943 23.7943 131.897 24.276 131.832 24.7188H132.047C132.49 23.9635 133.049 23.332 133.727 22.8242C134.417 22.3034 135.198 21.9128 136.07 21.6523C136.943 21.3789 137.867 21.2422 138.844 21.2422C140.562 21.2422 141.995 21.5156 143.141 22.0625C144.299 22.6094 145.165 23.4557 145.738 24.6016C146.324 25.7474 146.617 27.2318 146.617 29.0547V43H143.414V29.2695C143.414 27.4857 143.004 26.151 142.184 25.2656C141.376 24.3802 140.133 23.9375 138.453 23.9375C136.865 23.9375 135.595 24.2435 134.645 24.8555C133.707 25.4544 133.03 26.3398 132.613 27.5117C132.21 28.6836 132.008 30.1159 132.008 31.8086V43H128.766V12.6094H132.008ZM171.637 14.4453C175.322 14.4453 178.01 15.168 179.703 16.6133C181.409 18.0456 182.262 20.1029 182.262 22.7852C182.262 23.9961 182.06 25.1484 181.656 26.2422C181.266 27.3229 180.628 28.2799 179.742 29.1133C178.857 29.9336 177.691 30.5846 176.246 31.0664C174.814 31.5352 173.056 31.7695 170.973 31.7695H167.496V43H164.176V14.4453H171.637ZM171.324 17.2773H167.496V28.918H170.602C172.424 28.918 173.941 28.7227 175.152 28.332C176.376 27.9414 177.294 27.3099 177.906 26.4375C178.518 25.5521 178.824 24.3802 178.824 22.9219C178.824 21.0208 178.219 19.6081 177.008 18.6836C175.797 17.7461 173.902 17.2773 171.324 17.2773ZM197.477 21.2031C197.906 21.2031 198.355 21.2292 198.824 21.2812C199.293 21.3203 199.71 21.3789 200.074 21.457L199.664 24.4648C199.312 24.3737 198.922 24.3021 198.492 24.25C198.062 24.1979 197.659 24.1719 197.281 24.1719C196.422 24.1719 195.608 24.3477 194.84 24.6992C194.085 25.0378 193.421 25.5326 192.848 26.1836C192.275 26.8216 191.826 27.5964 191.5 28.5078C191.174 29.4062 191.012 30.4089 191.012 31.5156V43H187.75V21.5938H190.445L190.797 25.5391H190.934C191.376 24.7448 191.91 24.0221 192.535 23.3711C193.16 22.707 193.883 22.1797 194.703 21.7891C195.536 21.3984 196.461 21.2031 197.477 21.2031ZM212.359 21.2031C214.182 21.2031 215.745 21.6068 217.047 22.4141C218.349 23.2214 219.345 24.3542 220.035 25.8125C220.725 27.2578 221.07 28.9505 221.07 30.8906V32.9023H206.285C206.324 35.4154 206.949 37.3294 208.16 38.6445C209.371 39.9596 211.077 40.6172 213.277 40.6172C214.632 40.6172 215.829 40.4935 216.871 40.2461C217.913 39.9987 218.993 39.6341 220.113 39.1523V42.0039C219.033 42.4857 217.958 42.8372 216.891 43.0586C215.836 43.2799 214.586 43.3906 213.141 43.3906C211.083 43.3906 209.286 42.974 207.75 42.1406C206.227 41.2943 205.042 40.0573 204.195 38.4297C203.349 36.8021 202.926 34.8099 202.926 32.4531C202.926 30.1484 203.31 28.1562 204.078 26.4766C204.859 24.7839 205.953 23.4818 207.359 22.5703C208.779 21.6589 210.445 21.2031 212.359 21.2031ZM212.32 23.8594C210.589 23.8594 209.208 24.4258 208.18 25.5586C207.151 26.6914 206.539 28.2734 206.344 30.3047H217.672C217.659 29.0286 217.457 27.9089 217.066 26.9453C216.689 25.9688 216.109 25.2135 215.328 24.6797C214.547 24.1328 213.544 23.8594 212.32 23.8594ZM234.195 43.3906C231.487 43.3906 229.339 42.4661 227.75 40.6172C226.174 38.7682 225.387 36.0208 225.387 32.375C225.387 28.6901 226.194 25.9102 227.809 24.0352C229.423 22.1471 231.572 21.2031 234.254 21.2031C235.387 21.2031 236.376 21.3529 237.223 21.6523C238.069 21.9518 238.798 22.3555 239.41 22.8633C240.022 23.3581 240.536 23.9245 240.953 24.5625H241.188C241.135 24.1589 241.083 23.6055 241.031 22.9023C240.979 22.1992 240.953 21.6263 240.953 21.1836V12.6094H244.195V43H241.578L241.09 39.9531H240.953C240.549 40.5911 240.035 41.1706 239.41 41.6914C238.798 42.2122 238.062 42.6289 237.203 42.9414C236.357 43.2409 235.354 43.3906 234.195 43.3906ZM234.703 40.6953C236.995 40.6953 238.616 40.0443 239.566 38.7422C240.517 37.4401 240.992 35.5065 240.992 32.9414V32.3555C240.992 29.6341 240.536 27.5443 239.625 26.0859C238.727 24.6276 237.086 23.8984 234.703 23.8984C232.711 23.8984 231.22 24.6667 230.23 26.2031C229.241 27.7266 228.746 29.8099 228.746 32.4531C228.746 35.0833 229.234 37.1146 230.211 38.5469C231.201 39.9792 232.698 40.6953 234.703 40.6953ZM254.312 21.5938V43H251.07V21.5938H254.312ZM252.73 13.5859C253.264 13.5859 253.72 13.7617 254.098 14.1133C254.488 14.4518 254.684 14.9857 254.684 15.7148C254.684 16.431 254.488 16.9648 254.098 17.3164C253.72 17.668 253.264 17.8438 252.73 17.8438C252.171 17.8438 251.702 17.668 251.324 17.3164C250.96 16.9648 250.777 16.431 250.777 15.7148C250.777 14.9857 250.96 14.4518 251.324 14.1133C251.702 13.7617 252.171 13.5859 252.73 13.5859ZM269.762 43.3906C267.835 43.3906 266.135 42.9935 264.664 42.1992C263.193 41.4049 262.047 40.194 261.227 38.5664C260.406 36.9388 259.996 34.888 259.996 32.4141C259.996 29.8229 260.426 27.707 261.285 26.0664C262.158 24.4128 263.355 23.1888 264.879 22.3945C266.402 21.6003 268.134 21.2031 270.074 21.2031C271.142 21.2031 272.171 21.3138 273.16 21.5352C274.163 21.7435 274.983 22.0104 275.621 22.3359L274.645 25.0508C273.993 24.7904 273.238 24.556 272.379 24.3477C271.533 24.1393 270.738 24.0352 269.996 24.0352C268.512 24.0352 267.275 24.3542 266.285 24.9922C265.309 25.6302 264.573 26.5677 264.078 27.8047C263.596 29.0417 263.355 30.5651 263.355 32.375C263.355 34.1068 263.59 35.5846 264.059 36.8086C264.54 38.0326 265.25 38.9701 266.188 39.6211C267.138 40.2591 268.323 40.5781 269.742 40.5781C270.875 40.5781 271.897 40.4609 272.809 40.2266C273.72 39.9792 274.547 39.6927 275.289 39.3672V42.2578C274.573 42.6224 273.772 42.9023 272.887 43.0977C272.014 43.293 270.973 43.3906 269.762 43.3906ZM287.281 40.7344C287.815 40.7344 288.362 40.6888 288.922 40.5977C289.482 40.5065 289.938 40.3958 290.289 40.2656V42.7852C289.911 42.9544 289.384 43.0977 288.707 43.2148C288.043 43.332 287.392 43.3906 286.754 43.3906C285.621 43.3906 284.592 43.1953 283.668 42.8047C282.743 42.401 282.001 41.724 281.441 40.7734C280.895 39.8229 280.621 38.5078 280.621 36.8281V24.1328H277.574V22.5508L280.641 21.2812L281.93 16.6328H283.883V21.5938H290.152V24.1328H283.883V36.7305C283.883 38.0716 284.189 39.0742 284.801 39.7383C285.426 40.4023 286.253 40.7344 287.281 40.7344Z" fill="#DAE4ED"/>
<path d="M81.6582 53.9824C80.8704 53.9824 80.1608 54.1191 79.5293 54.3926C78.9043 54.6595 78.3704 55.0501 77.9277 55.5645C77.4915 56.0723 77.1562 56.6875 76.9219 57.4102C76.6875 58.1328 76.5703 58.9466 76.5703 59.8516C76.5703 61.0495 76.7559 62.0911 77.127 62.9766C77.5046 63.8555 78.0645 64.5358 78.8066 65.0176C79.5553 65.4993 80.4896 65.7402 81.6094 65.7402C82.2474 65.7402 82.8464 65.6882 83.4062 65.584C83.9727 65.4733 84.5228 65.3366 85.0566 65.1738V66.6191C84.5358 66.8145 83.9889 66.9577 83.416 67.0488C82.8431 67.1465 82.1628 67.1953 81.375 67.1953C79.9232 67.1953 78.709 66.8958 77.7324 66.2969C76.7624 65.6914 76.0332 64.8385 75.5449 63.7383C75.0632 62.638 74.8223 61.3392 74.8223 59.8418C74.8223 58.7611 74.972 57.7747 75.2715 56.8828C75.5775 55.9844 76.0202 55.2096 76.5996 54.5586C77.1855 53.9076 77.9017 53.4062 78.748 53.0547C79.6009 52.6966 80.5775 52.5176 81.6777 52.5176C82.4004 52.5176 83.097 52.5892 83.7676 52.7324C84.4382 52.8757 85.0436 53.0807 85.584 53.3477L84.9199 54.7539C84.4642 54.5456 83.9629 54.3665 83.416 54.2168C82.8757 54.0605 82.2897 53.9824 81.6582 53.9824ZM95.9355 67H94.2852V57.6543H91.0332C90.903 59.3405 90.737 60.7858 90.5352 61.9902C90.3398 63.1882 90.0924 64.168 89.793 64.9297C89.5 65.6849 89.1419 66.2415 88.7188 66.5996C88.3021 66.9512 87.804 67.127 87.2246 67.127C87.0488 67.127 86.8828 67.1172 86.7266 67.0977C86.5703 67.0781 86.4368 67.0456 86.3262 67V65.7695C86.4108 65.7956 86.4987 65.8151 86.5898 65.8281C86.6875 65.8411 86.7884 65.8477 86.8926 65.8477C87.1855 65.8477 87.4525 65.7272 87.6934 65.4863C87.9408 65.2389 88.1621 64.8678 88.3574 64.373C88.5592 63.8783 88.7383 63.2533 88.8945 62.498C89.0508 61.7363 89.1875 60.8411 89.3047 59.8125C89.4284 58.7773 89.5358 57.6055 89.627 56.2969H95.9355V67ZM103.475 56.1016C104.386 56.1016 105.167 56.3034 105.818 56.707C106.469 57.1107 106.967 57.6771 107.312 58.4062C107.658 59.1289 107.83 59.9753 107.83 60.9453V61.9512H100.438C100.457 63.2077 100.77 64.1647 101.375 64.8223C101.98 65.4798 102.833 65.8086 103.934 65.8086C104.611 65.8086 105.21 65.7467 105.73 65.623C106.251 65.4993 106.792 65.3171 107.352 65.0762V66.502C106.811 66.7428 106.274 66.9186 105.74 67.0293C105.213 67.14 104.588 67.1953 103.865 67.1953C102.837 67.1953 101.938 66.987 101.17 66.5703C100.408 66.1471 99.8158 65.5286 99.3926 64.7148C98.9694 63.901 98.7578 62.9049 98.7578 61.7266C98.7578 60.5742 98.9499 59.5781 99.334 58.7383C99.7246 57.8919 100.271 57.2409 100.975 56.7852C101.684 56.3294 102.518 56.1016 103.475 56.1016ZM103.455 57.4297C102.589 57.4297 101.899 57.7129 101.385 58.2793C100.87 58.8457 100.564 59.6367 100.467 60.6523H106.131C106.124 60.0143 106.023 59.4544 105.828 58.9727C105.639 58.4844 105.35 58.1068 104.959 57.8398C104.568 57.5664 104.067 57.4297 103.455 57.4297ZM118.426 56.2969V65.623H119.959V70.7012H118.387V67H110.809V70.7012H109.256V65.623H110.096C110.708 64.7767 111.215 63.849 111.619 62.8398C112.023 61.8307 112.329 60.7728 112.537 59.666C112.745 58.5527 112.856 57.4297 112.869 56.2969H118.426ZM116.854 57.5859H114.314C114.256 58.5365 114.116 59.5033 113.895 60.4863C113.68 61.4694 113.393 62.4069 113.035 63.2988C112.677 64.1842 112.26 64.959 111.785 65.623H116.854V57.5859ZM123.631 56.2969V63.0254C123.631 63.1556 123.628 63.3249 123.621 63.5332C123.615 63.735 123.605 63.9531 123.592 64.1875C123.579 64.4154 123.566 64.6367 123.553 64.8516C123.546 65.0599 123.536 65.2324 123.523 65.3691L129.363 56.2969H131.355V67H129.842V60.4375C129.842 60.2292 129.845 59.9622 129.852 59.6367C129.858 59.3112 129.868 58.9922 129.881 58.6797C129.894 58.3607 129.904 58.1133 129.91 57.9375L124.09 67H122.088V56.2969H123.631ZM142.098 57.6738H138.572V67H136.971V57.6738H133.494V56.2969H142.098V57.6738ZM148.338 56.1016C149.249 56.1016 150.031 56.3034 150.682 56.707C151.333 57.1107 151.831 57.6771 152.176 58.4062C152.521 59.1289 152.693 59.9753 152.693 60.9453V61.9512H145.301C145.32 63.2077 145.633 64.1647 146.238 64.8223C146.844 65.4798 147.697 65.8086 148.797 65.8086C149.474 65.8086 150.073 65.7467 150.594 65.623C151.115 65.4993 151.655 65.3171 152.215 65.0762V66.502C151.674 66.7428 151.137 66.9186 150.604 67.0293C150.076 67.14 149.451 67.1953 148.729 67.1953C147.7 67.1953 146.801 66.987 146.033 66.5703C145.271 66.1471 144.679 65.5286 144.256 64.7148C143.833 63.901 143.621 62.9049 143.621 61.7266C143.621 60.5742 143.813 59.5781 144.197 58.7383C144.588 57.8919 145.135 57.2409 145.838 56.7852C146.548 56.3294 147.381 56.1016 148.338 56.1016ZM148.318 57.4297C147.452 57.4297 146.762 57.7129 146.248 58.2793C145.734 58.8457 145.428 59.6367 145.33 60.6523H150.994C150.988 60.0143 150.887 59.4544 150.691 58.9727C150.503 58.4844 150.213 58.1068 149.822 57.8398C149.432 57.5664 148.93 57.4297 148.318 57.4297ZM163.396 56.1016C164.197 56.1016 164.891 56.2122 165.477 56.4336C166.062 56.6484 166.515 56.9642 166.834 57.3809C167.153 57.7975 167.312 58.3053 167.312 58.9043C167.312 59.5488 167.137 60.0632 166.785 60.4473C166.434 60.8314 165.949 61.1081 165.33 61.2773V61.3555C165.766 61.4727 166.16 61.6419 166.512 61.8633C166.87 62.0781 167.153 62.3646 167.361 62.7227C167.576 63.0742 167.684 63.5137 167.684 64.041C167.684 64.64 167.521 65.1803 167.195 65.6621C166.87 66.1374 166.375 66.5117 165.711 66.7852C165.047 67.0586 164.207 67.1953 163.191 67.1953C162.69 67.1953 162.215 67.166 161.766 67.1074C161.316 67.0553 160.91 66.9772 160.545 66.873C160.18 66.7689 159.861 66.6452 159.588 66.502V65.0273C160.044 65.2487 160.577 65.444 161.189 65.6133C161.801 65.7826 162.462 65.8672 163.172 65.8672C163.719 65.8672 164.21 65.8053 164.646 65.6816C165.083 65.5514 165.428 65.3464 165.682 65.0664C165.942 64.7799 166.072 64.4056 166.072 63.9434C166.072 63.5202 165.958 63.1719 165.73 62.8984C165.503 62.6185 165.161 62.4134 164.705 62.2832C164.256 62.1465 163.686 62.0781 162.996 62.0781H161.561V60.75H162.742C163.66 60.75 164.393 60.6198 164.939 60.3594C165.486 60.099 165.76 59.6595 165.76 59.041C165.76 58.5072 165.548 58.11 165.125 57.8496C164.702 57.5827 164.096 57.4492 163.309 57.4492C162.723 57.4492 162.205 57.5111 161.756 57.6348C161.307 57.752 160.822 57.9212 160.301 58.1426L159.725 56.8438C160.285 56.5964 160.87 56.4108 161.482 56.2871C162.094 56.1634 162.732 56.1016 163.396 56.1016ZM174.314 56.1211C175.59 56.1211 176.538 56.4076 177.156 56.9805C177.775 57.5534 178.084 58.4681 178.084 59.7246V67H176.902L176.59 65.418H176.512C176.212 65.8086 175.9 66.1374 175.574 66.4043C175.249 66.6647 174.871 66.8633 174.441 67C174.018 67.1302 173.497 67.1953 172.879 67.1953C172.228 67.1953 171.648 67.0814 171.141 66.8535C170.639 66.6257 170.242 66.2806 169.949 65.8184C169.663 65.3561 169.52 64.7702 169.52 64.0605C169.52 62.9928 169.943 62.1725 170.789 61.5996C171.635 61.0267 172.924 60.7142 174.656 60.6621L176.502 60.584V59.9297C176.502 59.0052 176.303 58.3574 175.906 57.9863C175.509 57.6152 174.949 57.4297 174.227 57.4297C173.667 57.4297 173.133 57.5111 172.625 57.6738C172.117 57.8366 171.635 58.0286 171.18 58.25L170.682 57.0195C171.163 56.7721 171.717 56.5605 172.342 56.3848C172.967 56.209 173.624 56.1211 174.314 56.1211ZM176.482 61.7266L174.852 61.7949C173.517 61.847 172.576 62.0651 172.029 62.4492C171.482 62.8333 171.209 63.377 171.209 64.0801C171.209 64.6921 171.395 65.1445 171.766 65.4375C172.137 65.7305 172.628 65.877 173.24 65.877C174.191 65.877 174.969 65.6133 175.574 65.0859C176.18 64.5586 176.482 63.7676 176.482 62.7129V61.7266ZM190.906 67.1953C189.943 67.1953 189.093 66.9967 188.357 66.5996C187.622 66.2025 187.049 65.597 186.639 64.7832C186.229 63.9694 186.023 62.944 186.023 61.707C186.023 60.4115 186.238 59.3535 186.668 58.5332C187.104 57.7064 187.703 57.0944 188.465 56.6973C189.227 56.3001 190.092 56.1016 191.062 56.1016C191.596 56.1016 192.111 56.1569 192.605 56.2676C193.107 56.3717 193.517 56.5052 193.836 56.668L193.348 58.0254C193.022 57.8952 192.645 57.778 192.215 57.6738C191.792 57.5697 191.395 57.5176 191.023 57.5176C190.281 57.5176 189.663 57.6771 189.168 57.9961C188.68 58.3151 188.312 58.7839 188.064 59.4023C187.824 60.0208 187.703 60.7826 187.703 61.6875C187.703 62.5534 187.82 63.2923 188.055 63.9043C188.296 64.5163 188.65 64.985 189.119 65.3105C189.594 65.6296 190.187 65.7891 190.896 65.7891C191.463 65.7891 191.974 65.7305 192.43 65.6133C192.885 65.4896 193.299 65.3464 193.67 65.1836V66.6289C193.312 66.8112 192.911 66.9512 192.469 67.0488C192.033 67.1465 191.512 67.1953 190.906 67.1953ZM204.715 58.9824C204.715 59.653 204.52 60.1771 204.129 60.5547C203.738 60.9258 203.234 61.1764 202.615 61.3066V61.3848C203.286 61.4759 203.862 61.7168 204.344 62.1074C204.832 62.4915 205.076 63.0807 205.076 63.875C205.076 64.487 204.93 65.0273 204.637 65.4961C204.344 65.9648 203.885 66.3327 203.26 66.5996C202.635 66.8665 201.821 67 200.818 67H196.209V56.2969H200.779C201.548 56.2969 202.225 56.3848 202.811 56.5605C203.403 56.7298 203.868 57.0098 204.207 57.4004C204.546 57.791 204.715 58.3184 204.715 58.9824ZM203.387 63.875C203.387 63.2435 203.146 62.7878 202.664 62.5078C202.189 62.2279 201.495 62.0879 200.584 62.0879H197.84V65.6816H200.623C201.521 65.6816 202.205 65.5449 202.674 65.2715C203.149 64.9915 203.387 64.526 203.387 63.875ZM203.064 59.168C203.064 58.6602 202.879 58.2826 202.508 58.0352C202.137 57.7812 201.528 57.6543 200.682 57.6543H197.84V60.7305H200.398C201.277 60.7305 201.941 60.6035 202.391 60.3496C202.84 60.0957 203.064 59.7018 203.064 59.168ZM216.922 61.6289C216.922 62.5078 216.808 63.2923 216.58 63.9824C216.352 64.6725 216.023 65.2552 215.594 65.7305C215.164 66.2057 214.643 66.5703 214.031 66.8242C213.426 67.0716 212.739 67.1953 211.971 67.1953C211.255 67.1953 210.597 67.0716 209.998 66.8242C209.406 66.5703 208.891 66.2057 208.455 65.7305C208.025 65.2552 207.69 64.6725 207.449 63.9824C207.215 63.2923 207.098 62.5078 207.098 61.6289C207.098 60.457 207.296 59.4609 207.693 58.6406C208.09 57.8138 208.657 57.1855 209.393 56.7559C210.135 56.3197 211.017 56.1016 212.039 56.1016C213.016 56.1016 213.868 56.3197 214.598 56.7559C215.333 57.1921 215.903 57.8236 216.307 58.6504C216.717 59.4707 216.922 60.4635 216.922 61.6289ZM208.777 61.6289C208.777 62.4883 208.891 63.2337 209.119 63.8652C209.347 64.4967 209.699 64.985 210.174 65.3301C210.649 65.6751 211.261 65.8477 212.01 65.8477C212.752 65.8477 213.361 65.6751 213.836 65.3301C214.318 64.985 214.673 64.4967 214.9 63.8652C215.128 63.2337 215.242 62.4883 215.242 61.6289C215.242 60.776 215.128 60.0404 214.9 59.4219C214.673 58.7969 214.321 58.3151 213.846 57.9766C213.37 57.638 212.755 57.4688 212 57.4688C210.887 57.4688 210.07 57.8366 209.549 58.5723C209.035 59.3079 208.777 60.3268 208.777 61.6289ZM221.268 56.2969V63.0254C221.268 63.1556 221.264 63.3249 221.258 63.5332C221.251 63.735 221.242 63.9531 221.229 64.1875C221.215 64.4154 221.202 64.6367 221.189 64.8516C221.183 65.0599 221.173 65.2324 221.16 65.3691L227 56.2969H228.992V67H227.479V60.4375C227.479 60.2292 227.482 59.9622 227.488 59.6367C227.495 59.3112 227.505 58.9922 227.518 58.6797C227.531 58.3607 227.54 58.1133 227.547 57.9375L221.727 67H219.725V56.2969H221.268ZM243.738 56.2969V67H242.273V60.0273C242.273 59.7409 242.28 59.4512 242.293 59.1582C242.312 58.8587 242.335 58.5592 242.361 58.2598H242.303L238.748 67H237.371L233.904 58.2598H233.846C233.865 58.5592 233.878 58.8587 233.885 59.1582C233.898 59.4512 233.904 59.7604 233.904 60.0859V67H232.43V56.2969H234.607L238.064 65.0469L241.57 56.2969H243.738ZM110.633 83.1016C111.434 83.1016 112.127 83.2122 112.713 83.4336C113.299 83.6484 113.751 83.9642 114.07 84.3809C114.389 84.7975 114.549 85.3053 114.549 85.9043C114.549 86.5488 114.373 87.0632 114.021 87.4473C113.67 87.8314 113.185 88.1081 112.566 88.2773V88.3555C113.003 88.4727 113.396 88.6419 113.748 88.8633C114.106 89.0781 114.389 89.3646 114.598 89.7227C114.812 90.0742 114.92 90.5137 114.92 91.041C114.92 91.64 114.757 92.1803 114.432 92.6621C114.106 93.1374 113.611 93.5117 112.947 93.7852C112.283 94.0586 111.443 94.1953 110.428 94.1953C109.926 94.1953 109.451 94.166 109.002 94.1074C108.553 94.0553 108.146 93.9772 107.781 93.873C107.417 93.7689 107.098 93.6452 106.824 93.502V92.0273C107.28 92.2487 107.814 92.444 108.426 92.6133C109.038 92.7826 109.699 92.8672 110.408 92.8672C110.955 92.8672 111.447 92.8053 111.883 92.6816C112.319 92.5514 112.664 92.3464 112.918 92.0664C113.178 91.7799 113.309 91.4056 113.309 90.9434C113.309 90.5202 113.195 90.1719 112.967 89.8984C112.739 89.6185 112.397 89.4134 111.941 89.2832C111.492 89.1465 110.923 89.0781 110.232 89.0781H108.797V87.75H109.979C110.896 87.75 111.629 87.6198 112.176 87.3594C112.723 87.099 112.996 86.6595 112.996 86.041C112.996 85.5072 112.785 85.11 112.361 84.8496C111.938 84.5827 111.333 84.4492 110.545 84.4492C109.959 84.4492 109.441 84.5111 108.992 84.6348C108.543 84.752 108.058 84.9212 107.537 85.1426L106.961 83.8438C107.521 83.5964 108.107 83.4108 108.719 83.2871C109.331 83.1634 109.969 83.1016 110.633 83.1016ZM125.389 83.2969V92.623H126.922V97.7012H125.35V94H117.771V97.7012H116.219V92.623H117.059C117.671 91.7767 118.178 90.849 118.582 89.8398C118.986 88.8307 119.292 87.7728 119.5 86.666C119.708 85.5527 119.819 84.4297 119.832 83.2969H125.389ZM123.816 84.5859H121.277C121.219 85.5365 121.079 86.5033 120.857 87.4863C120.643 88.4694 120.356 89.4069 119.998 90.2988C119.64 91.1842 119.223 91.959 118.748 92.623H123.816V84.5859ZM138.279 88.6289C138.279 89.5078 138.165 90.2923 137.938 90.9824C137.71 91.6725 137.381 92.2552 136.951 92.7305C136.521 93.2057 136.001 93.5703 135.389 93.8242C134.783 94.0716 134.096 94.1953 133.328 94.1953C132.612 94.1953 131.954 94.0716 131.355 93.8242C130.763 93.5703 130.249 93.2057 129.812 92.7305C129.383 92.2552 129.048 91.6725 128.807 90.9824C128.572 90.2923 128.455 89.5078 128.455 88.6289C128.455 87.457 128.654 86.4609 129.051 85.6406C129.448 84.8138 130.014 84.1855 130.75 83.7559C131.492 83.3197 132.374 83.1016 133.396 83.1016C134.373 83.1016 135.226 83.3197 135.955 83.7559C136.691 84.1921 137.26 84.8236 137.664 85.6504C138.074 86.4707 138.279 87.4635 138.279 88.6289ZM130.135 88.6289C130.135 89.4883 130.249 90.2337 130.477 90.8652C130.704 91.4967 131.056 91.985 131.531 92.3301C132.007 92.6751 132.618 92.8477 133.367 92.8477C134.109 92.8477 134.718 92.6751 135.193 92.3301C135.675 91.985 136.03 91.4967 136.258 90.8652C136.486 90.2337 136.6 89.4883 136.6 88.6289C136.6 87.776 136.486 87.0404 136.258 86.4219C136.03 85.7969 135.678 85.3151 135.203 84.9766C134.728 84.638 134.113 84.4688 133.357 84.4688C132.244 84.4688 131.427 84.8366 130.906 85.5723C130.392 86.3079 130.135 87.3268 130.135 88.6289ZM146.111 83.1016C147.446 83.1016 148.51 83.5605 149.305 84.4785C150.099 85.3965 150.496 86.7767 150.496 88.6191C150.496 89.8366 150.314 90.8587 149.949 91.6855C149.585 92.5124 149.07 93.1374 148.406 93.5605C147.749 93.9837 146.971 94.1953 146.072 94.1953C145.506 94.1953 145.008 94.1204 144.578 93.9707C144.148 93.821 143.781 93.6191 143.475 93.3652C143.169 93.1113 142.915 92.8346 142.713 92.5352H142.596C142.615 92.7891 142.638 93.0951 142.664 93.4531C142.697 93.8112 142.713 94.1237 142.713 94.3906V98.7852H141.082V83.2969H142.42L142.635 84.8789H142.713C142.921 84.5534 143.175 84.2572 143.475 83.9902C143.774 83.7168 144.139 83.502 144.568 83.3457C145.005 83.1829 145.519 83.1016 146.111 83.1016ZM145.828 84.4688C145.086 84.4688 144.487 84.612 144.031 84.8984C143.582 85.1849 143.253 85.6146 143.045 86.1875C142.837 86.7539 142.726 87.4668 142.713 88.3262V88.6387C142.713 89.5436 142.811 90.3086 143.006 90.9336C143.208 91.5586 143.536 92.0339 143.992 92.3594C144.454 92.6849 145.073 92.8477 145.848 92.8477C146.512 92.8477 147.065 92.6686 147.508 92.3105C147.951 91.9525 148.279 91.4544 148.494 90.8164C148.715 90.1719 148.826 89.4329 148.826 88.5996C148.826 87.3366 148.579 86.334 148.084 85.5918C147.596 84.8431 146.844 84.4688 145.828 84.4688ZM162.557 88.6289C162.557 89.5078 162.443 90.2923 162.215 90.9824C161.987 91.6725 161.658 92.2552 161.229 92.7305C160.799 93.2057 160.278 93.5703 159.666 93.8242C159.061 94.0716 158.374 94.1953 157.605 94.1953C156.889 94.1953 156.232 94.0716 155.633 93.8242C155.04 93.5703 154.526 93.2057 154.09 92.7305C153.66 92.2552 153.325 91.6725 153.084 90.9824C152.85 90.2923 152.732 89.5078 152.732 88.6289C152.732 87.457 152.931 86.4609 153.328 85.6406C153.725 84.8138 154.292 84.1855 155.027 83.7559C155.77 83.3197 156.652 83.1016 157.674 83.1016C158.65 83.1016 159.503 83.3197 160.232 83.7559C160.968 84.1921 161.538 84.8236 161.941 85.6504C162.352 86.4707 162.557 87.4635 162.557 88.6289ZM154.412 88.6289C154.412 89.4883 154.526 90.2337 154.754 90.8652C154.982 91.4967 155.333 91.985 155.809 92.3301C156.284 92.6751 156.896 92.8477 157.645 92.8477C158.387 92.8477 158.995 92.6751 159.471 92.3301C159.952 91.985 160.307 91.4967 160.535 90.8652C160.763 90.2337 160.877 89.4883 160.877 88.6289C160.877 87.776 160.763 87.0404 160.535 86.4219C160.307 85.7969 159.956 85.3151 159.48 84.9766C159.005 84.638 158.39 84.4688 157.635 84.4688C156.521 84.4688 155.704 84.8366 155.184 85.5723C154.669 86.3079 154.412 87.3268 154.412 88.6289ZM173.865 85.9824C173.865 86.653 173.67 87.1771 173.279 87.5547C172.889 87.9258 172.384 88.1764 171.766 88.3066V88.3848C172.436 88.4759 173.012 88.7168 173.494 89.1074C173.982 89.4915 174.227 90.0807 174.227 90.875C174.227 91.487 174.08 92.0273 173.787 92.4961C173.494 92.9648 173.035 93.3327 172.41 93.5996C171.785 93.8665 170.971 94 169.969 94H165.359V83.2969H169.93C170.698 83.2969 171.375 83.3848 171.961 83.5605C172.553 83.7298 173.019 84.0098 173.357 84.4004C173.696 84.791 173.865 85.3184 173.865 85.9824ZM172.537 90.875C172.537 90.2435 172.296 89.7878 171.814 89.5078C171.339 89.2279 170.646 89.0879 169.734 89.0879H166.99V92.6816H169.773C170.672 92.6816 171.355 92.5449 171.824 92.2715C172.299 91.9915 172.537 91.526 172.537 90.875ZM172.215 86.168C172.215 85.6602 172.029 85.2826 171.658 85.0352C171.287 84.7812 170.678 84.6543 169.832 84.6543H166.99V87.7305H169.549C170.428 87.7305 171.092 87.6035 171.541 87.3496C171.99 87.0957 172.215 86.7018 172.215 86.168ZM178.475 87.7109H181.756C182.667 87.7109 183.426 87.8249 184.031 88.0527C184.637 88.2806 185.089 88.6191 185.389 89.0684C185.695 89.5176 185.848 90.0742 185.848 90.7383C185.848 91.4023 185.698 91.9785 185.398 92.4668C185.105 92.9551 184.65 93.3327 184.031 93.5996C183.419 93.8665 182.628 94 181.658 94H176.844V83.2969H178.475V87.7109ZM184.217 90.8164C184.217 90.1589 183.982 89.7031 183.514 89.4492C183.051 89.1888 182.404 89.0586 181.57 89.0586H178.475V92.6816H181.58C182.361 92.6816 182.996 92.5384 183.484 92.252C183.973 91.959 184.217 91.4805 184.217 90.8164ZM192.762 83.1016C193.673 83.1016 194.454 83.3034 195.105 83.707C195.757 84.1107 196.255 84.6771 196.6 85.4062C196.945 86.1289 197.117 86.9753 197.117 87.9453V88.9512H189.725C189.744 90.2077 190.057 91.1647 190.662 91.8223C191.268 92.4798 192.12 92.8086 193.221 92.8086C193.898 92.8086 194.497 92.7467 195.018 92.623C195.538 92.4993 196.079 92.3171 196.639 92.0762V93.502C196.098 93.7428 195.561 93.9186 195.027 94.0293C194.5 94.14 193.875 94.1953 193.152 94.1953C192.124 94.1953 191.225 93.987 190.457 93.5703C189.695 93.1471 189.103 92.5286 188.68 91.7148C188.257 90.901 188.045 89.9049 188.045 88.7266C188.045 87.5742 188.237 86.5781 188.621 85.7383C189.012 84.8919 189.559 84.2409 190.262 83.7852C190.971 83.3294 191.805 83.1016 192.762 83.1016ZM192.742 84.4297C191.876 84.4297 191.186 84.7129 190.672 85.2793C190.158 85.8457 189.852 86.6367 189.754 87.6523H195.418C195.411 87.0143 195.311 86.4544 195.115 85.9727C194.926 85.4844 194.637 85.1068 194.246 84.8398C193.855 84.5664 193.354 84.4297 192.742 84.4297ZM211.17 83.2969V94H209.705V87.0273C209.705 86.7409 209.712 86.4512 209.725 86.1582C209.744 85.8587 209.767 85.5592 209.793 85.2598H209.734L206.18 94H204.803L201.336 85.2598H201.277C201.297 85.5592 201.31 85.8587 201.316 86.1582C201.329 86.4512 201.336 86.7604 201.336 87.0859V94H199.861V83.2969H202.039L205.496 92.0469L209.002 83.2969H211.17Z" fill="url(#paint0_linear_268_2)"/>
<defs>
<linearGradient id="paint0_linear_268_2" x1="52.5" y1="46" x2="290" y2="81" gradientUnits="userSpaceOnUse">
<stop stop-color="#93A0B2"/>
<stop offset="0.244792" stop-color="#8C9EB3"/>
<stop offset="0.505208" stop-color="#637183"/>
<stop offset="0.75" stop-color="#445266"/>
<stop offset="1" stop-color="#9FB2C8"/>
</linearGradient>
</defs>
</svg>
